<?xml version="1.0" standalone="no"?>
<!DOCTYPE svg PUBLIC "-//W3C//DTD SVG 20010904//EN"
 "http://www.w3.org/TR/2001/REC-SVG-20010904/DTD/svg10.dtd">
<svg version="1.0" xmlns="http://www.w3.org/2000/svg"
 width="64.000000pt" height="64.000000pt" viewBox="0 0 64.000000 64.000000"
 preserveAspectRatio="xMidYMid meet">

<g transform="translate(0.000000,64.000000) scale(0.100000,-0.100000)"
fill="#000000" stroke="none">
<path d="M125 569 c-42 -43 -65 -73 -57 -76 9 -3 12 -47 12 -169 l0 -164 -24
0 c-49 0 -56 -8 -56 -70 0 -97 -19 -90 240 -90 244 0 240 -1 240 51 0 23 44
36 65 19 7 -6 15 -24 17 -38 3 -24 7 -27 38 -27 l35 0 3 195 2 196 -52 71
c-29 40 -59 72 -66 73 -6 0 -35 -30 -62 -67 l-50 -68 0 -123 0 -123 -47 3 -48
3 3 155 c2 85 8 157 13 158 24 9 3 46 -57 101 -37 34 -70 61 -73 61 -4 0 -38
-32 -76 -71z m103 -181 c8 -8 12 -49 12 -121 l0 -108 -42 3 -43 3 2 109 c1
111 6 125 44 126 8 0 20 -5 27 -12z m322 -83 c15 -18 10 -45 -12 -59 -35 -22
-74 27 -48 59 16 19 44 19 60 0z"/>
</g>
</svg>
